<?xml version="1.0" standalone="no"?>
<!DOCTYPE svg PUBLIC "-//W3C//DTD SVG 20010904//EN"
 "http://www.w3.org/TR/2001/REC-SVG-20010904/DTD/svg10.dtd">
<svg version="1.0" xmlns="http://www.w3.org/2000/svg"
 width="1024.000000pt" height="1024.000000pt" viewBox="0 0 1024.000000 1024.000000"
 preserveAspectRatio="xMidYMid meet">

<g transform="translate(0.000000,1024.000000) scale(0.100000,-0.100000)"
fill="#032475" stroke="none">
<path d="M0 5120 l0 -5120 5120 0 5120 0 0 5120 0 5120 -5120 0 -5120 0 0
-5120z m4138 1224 c40 -8 112 -33 160 -56 246 -116 340 -361 230 -600 -41 -90
-118 -164 -223 -213 -119 -57 -163 -66 -340 -72 -202 -7 -299 9 -423 70 -192
94 -280 236 -270 436 12 246 204 411 525 451 86 11 247 3 341 -16z m4079 0
c91 -19 192 -63 263 -117 73 -55 94 -80 132 -157 28 -57 33 -77 36 -167 5
-122 -17 -204 -78 -284 -70 -93 -211 -174 -354 -203 -87 -18 -308 -21 -405 -5
-84 13 -209 63 -274 108 -177 124 -240 355 -152 549 70 153 284 275 515 296
73 6 239 -4 317 -20z m-5707 -74 l0 -70 -110 0 c-60 0 -110 -2 -110 -5 0 -3
25 -52 56 -108 31 -56 97 -176 146 -267 50 -91 93 -168 97 -172 4 -5 38 49 75
120 38 70 106 195 151 277 l82 150 -89 3 -88 3 0 69 0 70 315 0 315 0 0 -70 0
-70 -104 0 -105 0 -44 -82 c-118 -222 -218 -407 -239 -444 -13 -23 -49 -89
-81 -148 l-58 -106 -250 0 c-137 0 -249 4 -249 9 0 4 -11 24 -24 44 -14 20
-62 105 -107 189 -45 84 -105 194 -134 243 -28 50 -76 136 -105 193 l-54 102
-103 0 -103 0 0 70 0 70 460 0 460 0 0 -70z m2970 0 l0 -70 -105 0 -105 0 0
-316 0 -315 154 3 153 3 52 35 c63 43 108 109 123 184 l12 56 68 0 68 0 0
-215 0 -215 -635 0 -635 0 0 75 0 75 105 0 105 0 0 315 0 315 -105 0 -105 0 0
70 0 70 425 0 425 0 0 -70z m1110 0 l0 -69 -110 -3 -110 -3 79 -145 c43 -80
108 -199 145 -264 36 -66 66 -123 66 -127 0 -20 21 -18 29 3 5 13 23 48 41 78
18 30 81 146 140 258 l108 202 -89 0 -89 0 0 70 0 70 320 0 320 0 0 -70 0 -70
-108 0 -108 0 -17 -32 c-10 -18 -30 -55 -45 -83 -15 -27 -61 -113 -101 -190
-41 -77 -79 -147 -86 -155 -7 -8 -48 -84 -91 -167 l-79 -153 -252 0 -252 0
-13 28 c-42 81 -182 339 -193 352 -6 8 -38 65 -70 125 -78 147 -126 236 -139
258 -9 14 -27 17 -113 17 l-103 0 0 70 0 70 460 0 460 0 0 -70z m-3543 -1845
c29 -15 65 -42 79 -60 62 -81 81 -210 47 -310 -24 -72 -103 -149 -172 -169
-69 -20 -143 -20 -212 0 -111 33 -196 166 -187 294 6 82 58 184 115 223 89 63
227 72 330 22z m1630 20 c67 -20 126 -65 159 -121 23 -39 29 -63 32 -131 6
-118 -9 -164 -77 -234 -44 -45 -68 -61 -110 -73 -156 -46 -304 12 -368 142
-21 43 -26 68 -26 131 -1 69 3 87 31 143 65 129 210 187 359 143z m857 0 c52
-14 146 -68 146 -85 0 -3 -24 -27 -53 -52 l-53 -46 -27 24 c-58 50 -147 55
-202 12 -81 -64 -70 -240 18 -281 68 -33 151 -15 175 38 7 14 12 28 12 30 0 3
-25 5 -55 5 l-55 0 0 55 0 55 125 0 125 0 0 -160 0 -160 -60 0 c-58 0 -60 1
-60 26 l0 26 -30 -26 c-53 -44 -179 -48 -257 -7 -94 48 -146 141 -146 263 0
68 5 87 32 143 63 128 204 182 365 140z m1301 -15 c90 -43 155 -152 155 -257
0 -174 -125 -303 -295 -303 -171 0 -295 122 -295 290 0 101 56 211 130 254 85
50 220 57 305 16z m-695 9 c82 -13 127 -41 151 -93 37 -82 18 -171 -49 -226
l-36 -29 67 -101 c37 -55 67 -102 67 -105 0 -3 -38 -5 -85 -5 -77 0 -86 2 -98
23 -8 12 -34 54 -58 94 -43 71 -45 72 -86 73 l-43 0 0 -95 0 -96 -72 3 -73 3
-3 277 -2 277 82 4 c46 1 103 4 128 5 25 1 74 -3 110 -9z m1898 1 c35 -5 80
-17 100 -27 101 -52 110 -243 15 -311 -42 -29 -98 -42 -190 -42 l-83 0 0 -90
0 -91 -72 3 -73 3 -3 277 -2 277 72 4 c149 7 174 6 236 -3z m-5810 -172 c28
-95 54 -186 58 -203 7 -29 8 -28 21 25 8 30 32 121 55 203 l40 147 79 0 c44 0
79 -3 78 -7 0 -5 -42 -129 -92 -278 l-92 -270 -83 -3 -82 -3 -20 45 c-16 39
-170 500 -170 512 0 2 35 4 79 4 l78 0 51 -172z m1222 -43 l0 -215 120 0 120
0 0 -65 0 -65 -190 0 -190 0 0 280 0 280 70 0 70 0 0 -215z m426 170 c7 -22
28 -89 47 -150 19 -60 40 -135 48 -165 8 -32 14 -47 17 -35 3 18 86 337 98
378 5 14 18 17 85 17 79 0 80 0 73 -22 -3 -13 -46 -138 -94 -278 l-87 -255
-88 0 -87 0 -88 270 c-49 149 -89 274 -90 278 0 4 35 7 77 5 l76 -3 13 -40z
m3364 -139 c0 -183 0 -185 26 -215 30 -36 78 -48 129 -31 59 19 65 43 65 250
l0 180 65 0 65 0 0 -202 c0 -228 -8 -260 -77 -317 -91 -75 -283 -64 -359 21
-54 59 -59 80 -62 296 l-4 202 76 0 76 0 0 -184z"/>
<path d="M3867 6210 c-105 -32 -188 -205 -173 -362 7 -73 43 -182 77 -229 64
-91 233 -91 298 -1 53 75 82 213 70 327 -23 194 -137 305 -272 265z"/>
<path d="M7940 6207 c-99 -32 -165 -166 -163 -332 1 -152 54 -263 147 -312 47
-24 145 -14 190 20 67 52 106 162 106 304 0 122 -28 210 -85 269 -56 59 -119
75 -195 51z"/>
<path d="M2859 4321 c-73 -23 -101 -68 -100 -161 0 -98 40 -148 124 -157 91
-9 152 56 152 162 -1 66 -21 116 -58 139 -29 19 -85 27 -118 17z"/>
<path d="M4521 4313 c-50 -26 -74 -64 -79 -126 -9 -106 39 -176 125 -184 88
-8 153 61 153 162 0 57 -23 110 -60 137 -39 27 -99 32 -139 11z"/>
<path d="M6634 4311 c-52 -24 -77 -73 -76 -152 1 -97 42 -147 125 -156 54 -5
105 20 132 67 28 48 27 142 -1 190 -35 60 -113 82 -180 51z"/>
<path d="M5970 4255 l0 -65 69 0 c81 0 121 23 121 69 0 47 -27 61 -113 61
l-77 0 0 -65z"/>
<path d="M7880 4250 l0 -70 70 0 c92 0 120 17 120 71 0 54 -25 69 -117 69
l-73 0 0 -70z"/>
</g>
</svg>
